<svg width="121" height="44" viewBox="0 0 121 44" fill="none" xmlns="http://www.w3.org/2000/svg">
<path d="M4.83 6.216C4.746 8.064 4.704 11.004 4.704 15.036C4.704 19.068 4.83 22.414 5.082 25.074C5.362 27.734 5.502 29.288 5.502 29.736C5.502 30.184 5.306 30.632 4.914 31.08C4.55 31.528 4.074 31.752 3.486 31.752C2.898 31.752 2.408 31.528 2.016 31.08C1.652 30.632 1.47 30.184 1.47 29.736C1.47 29.288 1.596 27.734 1.848 25.074C2.128 22.414 2.268 19.796 2.268 17.22C2.268 14.644 2.212 10.892 2.1 5.964C1.54 5.936 1.05 5.782 0.630002 5.502C0.210003 5.194 2.58535e-06 4.774 2.58535e-06 4.242C2.58535e-06 2.926 0.882003 2.268 2.646 2.268C4.074 2.268 5.558 2.632 7.098 3.36C8.666 4.088 10.346 5.418 12.138 7.35C13.958 9.282 15.512 11.69 16.8 14.574C17.22 15.498 18.032 17.36 19.236 20.16C20.44 22.96 21.35 24.976 21.966 26.208C21.91 18.032 21.672 12.46 21.252 9.492C21.112 8.512 20.972 7.616 20.832 6.804C20.72 5.992 20.664 5.264 20.664 4.62C20.664 3.948 20.86 3.388 21.252 2.94C21.672 2.492 22.162 2.268 22.722 2.268C23.31 2.268 23.786 2.492 24.15 2.94C24.514 3.388 24.696 4.06 24.696 4.956C24.696 5.824 24.626 7.434 24.486 9.786C24.206 15.274 24.066 21.882 24.066 29.61C26.334 33.194 28.224 35.63 29.736 36.918C30.576 37.646 31.444 38.248 32.34 38.724C33.264 39.228 33.964 39.564 34.44 39.732C35.532 40.124 36.078 40.866 36.078 41.958C36.078 42.406 35.868 42.812 35.448 43.176C35.028 43.54 34.496 43.722 33.852 43.722C32.312 43.722 30.674 42.952 28.938 41.412C27.202 39.872 25.494 37.772 23.814 35.112C20.678 30.072 17.64 23.842 14.7 16.422C12.376 10.486 9.086 7.084 4.83 6.216ZM34.0807 17.514C32.8487 18.746 32.2327 20.258 32.2327 22.05C32.2327 23.842 32.8487 25.368 34.0807 26.628C35.3407 27.86 36.8527 28.476 38.6167 28.476C40.4087 28.476 41.9067 27.86 43.1107 26.628C44.3147 25.368 44.9167 23.842 44.9167 22.05C44.9167 20.258 44.3147 18.746 43.1107 17.514C41.9067 16.282 40.4087 15.666 38.6167 15.666C36.8527 15.666 35.3407 16.282 34.0807 17.514ZM35.7607 31.752C33.9687 31.752 32.4707 31.052 31.2667 29.652C30.0627 28.252 29.4607 26.502 29.4607 24.402C29.4607 22.274 30.1187 20.23 31.4347 18.27C32.7507 16.282 34.2907 14.798 36.0547 13.818C37.8187 12.838 39.5967 12.348 41.3887 12.348C43.1807 12.348 44.6787 13.048 45.8827 14.448C47.0867 15.848 47.6887 17.612 47.6887 19.74C47.6887 21.84 47.0307 23.884 45.7147 25.872C44.3987 27.832 42.8587 29.302 41.0947 30.282C39.3307 31.262 37.5527 31.752 35.7607 31.752ZM51.5685 21.42L51.2745 14.406C51.2745 13.818 51.4565 13.328 51.8205 12.936C52.2125 12.544 52.6745 12.348 53.2065 12.348C53.7385 12.348 54.1725 12.544 54.5085 12.936C54.8445 13.3 55.0125 13.762 55.0125 14.322C55.0125 14.882 54.9985 15.302 54.9705 15.582C56.5945 13.426 58.3165 12.348 60.1365 12.348C62.2645 12.348 63.7905 13.622 64.7145 16.17C66.5065 13.622 68.4385 12.348 70.5105 12.348C73.1705 12.348 74.8925 14.322 75.6765 18.27L77.1465 25.494C77.2865 26.166 77.6225 26.88 78.1545 27.636C78.6865 28.364 78.9525 29.064 78.9525 29.736C78.9525 30.38 78.7425 30.884 78.3225 31.248C77.9305 31.584 77.4545 31.752 76.8945 31.752C75.6065 31.752 74.7665 30.646 74.3745 28.434L72.8205 19.656C72.6245 18.424 72.2185 17.416 71.6025 16.632C70.9865 15.848 70.1885 15.456 69.2085 15.456C67.8925 15.456 66.6325 16.59 65.4285 18.858L66.7725 25.494C66.9125 26.166 67.2485 26.88 67.7805 27.636C68.3125 28.364 68.5785 29.064 68.5785 29.736C68.5785 30.38 68.3685 30.884 67.9485 31.248C67.5565 31.584 67.0805 31.752 66.5205 31.752C65.2325 31.752 64.3925 30.646 64.0005 28.434L62.4465 19.656C62.2505 18.508 61.7745 17.528 61.0185 16.716C60.2625 15.876 59.3525 15.456 58.2885 15.456C57.2525 15.456 56.4125 15.862 55.7685 16.674C55.1525 17.486 54.8165 18.298 54.7605 19.11C54.7325 19.894 54.7185 20.664 54.7185 21.42L55.0125 29.736C55.0125 30.324 54.8445 30.814 54.5085 31.206C54.1725 31.57 53.7385 31.752 53.2065 31.752C52.6745 31.752 52.2125 31.57 51.8205 31.206C51.4565 30.814 51.2745 30.324 51.2745 29.736L51.5685 21.42ZM96.4625 25.872C96.6585 26.376 97.0645 27.062 97.6805 27.93C98.3245 28.77 98.6465 29.456 98.6465 29.988C98.6465 30.52 98.5065 30.954 98.2265 31.29C97.9465 31.598 97.5685 31.752 97.0925 31.752C95.9445 31.752 94.9225 30.562 94.0265 28.182L93.6905 27.258C92.2625 30.254 90.1205 31.752 87.2645 31.752C85.8365 31.752 84.6465 31.304 83.6945 30.408C82.7705 29.484 82.3085 28.336 82.3085 26.964C82.3085 24.836 83.0365 23.002 84.4925 21.462C85.9485 19.922 87.8525 19.096 90.2045 18.984C89.6445 18.004 89.0145 17.276 88.3145 16.8C87.6425 16.296 87.0265 16.002 86.4665 15.918C85.9065 15.834 85.3745 15.792 84.8705 15.792C84.3945 15.764 84.0165 15.652 83.7365 15.456C83.4565 15.26 83.3165 14.882 83.3165 14.322C83.3165 13.734 83.5405 13.258 83.9885 12.894C84.4645 12.53 85.0245 12.348 85.6685 12.348C87.4885 12.348 89.2805 13.258 91.0445 15.078C92.8085 16.898 94.3485 19.754 95.6645 23.646L96.4625 25.872ZM89.1545 21.21C88.1465 21.21 87.2365 21.546 86.4245 22.218C85.6405 22.89 85.2485 23.758 85.2485 24.822C85.2485 25.886 85.5985 26.782 86.2985 27.51C87.0265 28.21 87.8945 28.56 88.9025 28.56C89.9105 28.56 90.7785 28.21 91.5065 27.51C92.2345 26.782 92.5985 25.928 92.5985 24.948C92.5985 24.248 92.4725 23.604 92.2205 23.016C91.9685 22.4 91.8145 22.022 91.7585 21.882C91.0305 21.434 90.1625 21.21 89.1545 21.21ZM107.004 31.752C105.24 31.752 103.756 31.052 102.552 29.652C101.348 28.252 100.746 26.642 100.746 24.822C100.746 22.974 101.11 21.252 101.838 19.656C102.566 18.06 103.49 16.744 104.61 15.708C105.73 14.672 106.934 13.86 108.222 13.272C109.538 12.656 110.882 12.348 112.254 12.348C113.654 12.348 114.942 12.866 116.118 13.902C116.09 11.802 115.992 9.506 115.824 7.014C115.656 4.494 115.572 2.912 115.572 2.268C115.572 1.624 115.74 1.092 116.076 0.671999C116.412 0.223998 116.846 -2.5034e-06 117.378 -2.5034e-06C117.91 -2.5034e-06 118.358 0.237998 118.722 0.713998C119.114 1.162 119.31 1.778 119.31 2.562C119.31 3.318 119.184 5.11 118.932 7.938C118.708 10.738 118.596 13.37 118.596 15.834C118.596 18.298 118.694 20.44 118.89 22.26C119.086 24.052 119.296 25.27 119.52 25.914C120.164 27.622 120.486 28.77 120.486 29.358C120.486 30.954 119.87 31.752 118.638 31.752C117.154 31.752 116.286 30.17 116.034 27.006C114.914 28.49 113.57 29.652 112.002 30.492C110.434 31.332 108.768 31.752 107.004 31.752ZM105.366 17.514C104.134 18.746 103.518 20.258 103.518 22.05C103.518 23.842 104.134 25.368 105.366 26.628C106.626 27.86 108.138 28.476 109.902 28.476C111.694 28.476 113.192 27.86 114.396 26.628C115.6 25.368 116.202 23.786 116.202 21.882C116.202 19.978 115.656 18.466 114.564 17.346C113.472 16.226 111.974 15.666 110.07 15.666C108.194 15.666 106.626 16.282 105.366 17.514Z" fill="black"/>
</svg>
